<svg id="48a0fe04-5e28-4e68-a9b5-1062e0dbd0d8" data-name="Capa 1" xmlns="http://www.w3.org/2000/svg" viewBox="0 0 896.13965 195.7002"><title>logo_h</title><path d="M0,193.38274l19.59424-61.752H34.8623l19.59424,61.752h-11.96l-4.15625-13.48731H16.11621L11.96,193.38274Zm19.16992-23.15723h16.1167l-8.0581-26.04Z" style="fill:#f1f1f1"/><path d="M62.59717,193.38274v-61.752H74.47266l24.853,41.81836V131.63078h11.28174v61.752H98.81689l-24.938-41.81836v41.81836Z" style="fill:#f1f1f1"/><path d="M125.0249,193.38274v-61.752H136.561v61.752Z" style="fill:#f1f1f1"/><path d="M150.98,193.38274v-61.752h13.82617l16.54053,34.69336,16.541-34.69336h13.82617v61.752h-11.3667V149.44426l-14.92871,31.2998h-8.05811L162.34619,149.3593v44.02344Z" style="fill:#f1f1f1"/><path d="M219.85352,193.38274l19.59423-61.752h15.26807l19.59424,61.752h-11.96l-4.15625-13.48731H235.96973l-4.15625,13.48731Zm19.16992-23.15723h16.1167l-8.05811-26.04Z" style="fill:#f1f1f1"/><path d="M282.45068,193.38274v-61.752h11.53614V182.7802H316.041l-.67872,10.60254Z" style="fill:#f1f1f1"/><path d="M487.64258,162.50676c0-19.67871,10.43359-31.8086,28.416-31.8086a26.75833,26.75833,0,0,1,21.376,9.75489l-8.22852,6.61621a16.98688,16.98688,0,0,0-13.14746-6.19238c-10.6875,0-16.87988,8.14355-16.87988,21.62988,0,13.4873,6.19238,21.88476,16.87988,21.88476,7.46485,0,13.31739-5.00488,13.91114-14.50488H516.05859v-9.75488H541.166v7.80371c0,17.21973-11.70508,26.37988-25.10743,26.37988C498.07617,194.31535,487.64258,182.18645,487.64258,162.50676Z" style="fill:#ff7364"/><path d="M549.73145,162.50676c0-19.76367,10.51757-31.8086,28.416-31.8086,17.89746,0,28.5,12.04493,28.5,31.8086s-10.60254,31.80859-28.5,31.80859C560.249,194.31535,549.73145,182.27043,549.73145,162.50676Zm45.37988,0c0-13.57129-6.36133-21.62988-16.96387-21.62988-10.60351,0-16.87988,8.05859-16.87988,21.62988,0,13.57226,6.27637,21.62988,16.87988,21.62988C588.75,184.13664,595.11133,176.079,595.11133,162.50676Z" style="fill:#ff7364"/><path d="M615.72266,169.29289V131.63078h11.53613v37.66211c0,10.09375,3.5625,14.84375,12.04492,14.84375s12.04492-4.75,12.04492-14.84375V131.63078h11.53614v37.66211c0,17.04981-6.95508,25.02246-23.58106,25.02246C622.67871,194.31535,615.72266,186.3427,615.72266,169.29289Z" style="fill:#ff7364"/><path d="M676.4541,193.38274v-61.752h18.66113c13.48731,0,24.08985,4.24121,24.08985,19.08594,0,9.5-4.49512,14.335-11.36621,16.625l.76367,1.44238,12.63867,24.59864H708.00879l-9.585-19.9336c-1.44238-2.88379-2.1211-3.47754-5.17481-3.47754h-5.25879v23.41114Zm11.53613-52.251V160.4716h7.125c7.04,0,12.55372-2.71484,12.55372-9.75488,0-7.041-5.51368-9.585-12.55372-9.585Z" style="fill:#ff7364"/><path d="M731.418,193.38274v-61.752h13.82617l16.541,34.69336,16.54-34.69336h13.82617v61.752H780.78516V149.44426l-14.92871,31.2998h-8.0586L742.78418,149.3593v44.02344Z" style="fill:#ff7364"/><path d="M818.10449,166.91789V183.204H844.6543v10.17872H806.56836v-61.752H844.6543l-.67871,10.17969h-25.8711v15.09766H838.208v10.00976Z" style="fill:#ff7364"/><path d="M868.65723,193.38274V142.2343H852.625V131.63078h43.51465V142.2343H880.1084v51.14844Z" style="fill:#ff7364"/><path d="M372.30875,43.30305s-.512,2.92133.512,4.638c0,0,3.16226,4.18624,3.31285,6.6257A6.639,6.639,0,0,1,373.54354,60.56s-6.14383,4.06577-6.957,9.36633c0,0-1.71666,6.32453,1.47573,9.18563,0,0,3.25261,3.49355,9.035.33129a3.08862,3.08862,0,0,0,.18071-2.04795s-2.89122-10.4405,1.36529-12.368c0,0,1.20467-.08031,1.12436,1.36529,0,0-2.0881,13.73327,4.73838,14.13483a9.33215,9.33215,0,0,0,9.23583-6.66585s1.52592-5.22025-3.53371-9.95863c0,0-6.2643-8.754,10.76175-9.23583,0,0,6.50523.16062,11.083,2.16841,0,0-6.50524-17.267-28.109-19.67632C383.94388,37.15922,374.72813,34.99081,372.30875,43.30305Z" style="fill:#ff7463"/><path d="M415.17117,188.31316a22.04751,22.04751,0,0,1-4.03565-2.59c-2.03938-2.73861,2.06465-16.97407,2.33475-17.90053a17.52308,17.52308,0,0,1-6.59353,1.83361,98.25991,98.25991,0,0,1,.67487,10.34472c-.36139,3.55377-3.13215,3.9453-3.13215,3.9453a42.59791,42.59791,0,0,0-9.21574,1.18961c-6.21913,2.04794-4.00552,5.28549-4.00552,5.28549,1.83711,2.78582,5.33066-1.295,5.33066-1.295h.40658l.10542.271c-4.0959,3.07193-1.74679,5.60173-1.74679,5.60173,2.95144,2.16843,4.57776-1.38536,4.57776-1.38536a10.27147,10.27147,0,0,1,3.07191-4.51752c5.30058-5.05965,8.13156,2.28887,8.13156,2.28887,1.74676,3.79472,4.45727,1.98772,4.45727,1.98772C418.30332,191.02367,415.17117,188.31316,415.17117,188.31316Z" style="fill:#ff7463"/><path d="M444.86568,90.6799s-58.76765,18.821-67.602-10.75487c0,0-.05183-.2009-.13109-.55174-.0199.04152-.03523.06993-.03523.06993-5.78244,3.16229-9.03506-.33129-9.03506-.33129-3.19237-2.86108-1.47572-9.1856-1.47572-9.1856.81315-5.30058,6.957-9.36635,6.957-9.36635a6.63892,6.63892,0,0,0,2.59-5.99324c-.15057-2.43947-3.31283-6.6257-3.31283-6.6257a6.97377,6.97377,0,0,1-.60606-3.81663c-6.93866,4.61887-52.32605,56.13007-11.85152,104.55493,0,0,9.21843,9.98666,29.19176,15.74821,0,0,21.89383,15.74819,33.801-7.298,0,0,26.119-5.37743,29.96-37.25793C454.9943,120.6337,482.43552,81.35805,444.86568,90.6799Zm-11.46022,40.32746s-4.17618,6.90679-27.30592,4.49746c-1.70391-.1775,1.31462,5.91032-.96375,9.31613-3.738,5.58773-12.9386,4.36362-14.76843,4.12016-16.02-2.1314-24.27916-21.04138-25.06609-22.91305a50.441,50.441,0,0,1-3.37308-17.66856c.1571-1.44973,1.76686-4.01557,1.60624.16063a43.83759,43.83759,0,0,0,7.38865,20.72039c5.83313,8.46184,17.15792,18.072,25.69968,15.74106a6.32579,6.32579,0,0,0,4.0156-2.7306c1.525-2.837-.25318-7.43239-4.49746-11.72548,0,0-3.05185-3.21246,1.44561-1.44561,0,0,18.95351,7.54928,34.53394-.32124C432.12045,128.75865,435.1723,128.598,433.40546,131.00736Z" style="fill:#f2f2f2"/><path d="M450.58858,84.74381s-3.91519-11.20347-22.22624-18.37127c-3.299-1.14619-6.51108-.85924-8.21183.97377a4.6341,4.6341,0,0,0-.94367,1.556s-.47559,1.16047.70078,3.68451c.91682,1.96721,2.83714,4.76271,6.76818,8.48268,0,0-8.252-2.04794-8.7941,4.39706,0,0-.3614,6.50524,8.97481,5.662C426.85651,91.12857,442.33659,90.34554,450.58858,84.74381Z" style="fill:#f2f2f2"/><path d="M407.22036,8.60847a6.71912,6.71912,0,0,1,3.092-7.79021,6.72985,6.72985,0,0,1,8.59333,1.8873A11.33074,11.33074,0,0,1,428.98479,7.966a11.7027,11.7027,0,0,1,.92356,9.83815c2.05867,5.00941-.31407,10.15283-4.01557,11.44439-2.58456.90184-5.76072-.0939-8.03115-2.40933l-6.30444,3.092a1.60866,1.60866,0,0,1-1.40547,0,5.43687,5.43687,0,0,1-.763-.763c-.27683-.28569-.45352-.4535-.522-.522-.35108-.35132-1.50957-1.7476-4.57776-5.662-.54608-.89768-1.418-1.16-1.76685-.92358-.33136.22455-.408,1.046.0803,1.84717l4.97933,6.46507a1.18043,1.18043,0,0,1-.56219,1.56607l-8.89451,4.07582a6.30857,6.30857,0,0,1-7.52921-8.85432Z" style="fill:#fff"/></svg>