<svg id="246fbb3f-7391-45dc-ac1e-2675a236b630" data-name="Capa 1" xmlns="http://www.w3.org/2000/svg" viewBox="0 0 316.99463 332.29669"><title>lv_w</title><path d="M0,278.6629l21.67529-68.0166h6.91407l21.67578,68.0166H46.15381L39.3335,257.2674H10.93115L4.11084,278.6629Zm12.05225-24.94531H38.2124l-12.61279-39.708H24.665Z" style="fill:#f6f6f6"/><path d="M62.96875,278.6629V210.6463h5.04541l35.12939,62.41113V210.6463h3.92383v68.0166h-5.04492L66.89307,216.43927V278.6629Z" style="fill:#f6f6f6"/><path d="M127.24512,278.6629V210.6463h3.92431v68.0166Z" style="fill:#f6f6f6"/><path d="M151.34863,278.6629V210.6463h6.07276l22.98437,48.957,22.9834-48.957h6.07227v68.0166H205.5376V214.8504l-23.07715,49.05078h-4.11133L155.273,214.8504v63.8125Z" style="fill:#f6f6f6"/><path d="M222.16553,278.6629l21.67578-68.0166h6.91308l21.67579,68.0166h-4.11036l-6.82031-21.3955H233.09619l-6.82031,21.3955Zm12.05176-24.94531h26.16113l-12.61328-39.708h-.93457Z" style="fill:#f6f6f6"/><path d="M285.13525,278.6629V210.6463h3.92383v64.46582h27.93555l-.28027,3.55078Z" style="fill:#f6f6f6"/><path d="M20.59717,312.59552c0-12.18848,6.46191-19.70117,17.59961-19.70117a16.57056,16.57056,0,0,1,13.23877,6.042L46.33984,303.034a10.524,10.524,0,0,0-8.14306-3.835c-6.61963,0-10.45459,5.043-10.45459,13.39648s3.835,13.55469,10.45459,13.55469c4.623,0,8.248-3.09961,8.61572-8.98438H38.19678v-6.041H53.74756v4.833c0,10.665-7.25,16.33886-15.55078,16.33886C27.05908,332.29669,20.59717,324.784,20.59717,312.59552Z" style="fill:#f6f6f6"/><path d="M59.05371,312.59552c0-12.24121,6.51416-19.70117,17.59961-19.70117,11.085,0,17.65186,7.46,17.65186,19.70117s-6.5669,19.70117-17.65186,19.70117C65.56787,332.29669,59.05371,324.83673,59.05371,312.59552Zm28.10693,0c0-8.40625-3.94043-13.39648-10.50732-13.39648s-10.45459,4.99023-10.45459,13.39648c0,8.40527,3.8877,13.39648,10.45459,13.39648S87.16064,321.00079,87.16064,312.59552Z" style="fill:#f6f6f6"/><path d="M99.92725,316.79865V293.47247h7.14453v23.32618c0,6.25195,2.20654,9.19335,7.46045,9.19335,5.25341,0,7.46-2.9414,7.46-9.19335V293.47247h7.145v23.32618c0,10.55957-4.30811,15.498-14.605,15.498C104.23486,332.29669,99.92725,327.35822,99.92725,316.79865Z" style="fill:#f6f6f6"/><path d="M137.54248,331.71857v-38.2461h11.55811c8.353,0,14.92041,2.627,14.92041,11.82032,0,5.88379-2.78516,8.8789-7.04,10.29687l.47265.89356,7.82813,15.23535h-8.19629l-5.936-12.34571c-.89306-1.78613-1.31347-2.15429-3.20459-2.15429H144.6875v14.5Zm7.145-32.36231v11.97852h4.41309c4.36035,0,7.77587-1.68164,7.77587-6.042s-3.41552-5.93653-7.77587-5.93653Z" style="fill:#f6f6f6"/><path d="M171.58545,331.71857v-38.2461h8.56445L190.394,314.95978l10.24414-21.48731h8.56348v38.2461h-7.04V304.5047l-9.24609,19.38574h-4.99024L178.62646,304.452v27.2666Z" style="fill:#f6f6f6"/><path d="M225.27783,315.327v10.08691h16.44434v6.30469H218.1333v-38.2461h23.58887l-.4209,6.30371H225.27783v9.35157H237.729V315.327Z" style="fill:#f6f6f6"/><path d="M256.58936,331.71857V300.03888h-9.92969v-6.56641h26.95117v6.56641h-9.92969v31.67969Z" style="fill:#f6f6f6"/><path d="M115.29128,43.30305s-.512,2.92133.512,4.638c0,0,3.16226,4.18624,3.31285,6.6257a6.639,6.639,0,0,1-2.59,5.99325s-6.14383,4.06577-6.957,9.36633c0,0-1.71666,6.32453,1.47572,9.18563,0,0,3.25262,3.49355,9.035.33129a3.08866,3.08866,0,0,0,.1807-2.04795s-2.89122-10.4405,1.36529-12.368c0,0,1.20468-.08031,1.12436,1.36529,0,0-2.08809,13.73327,4.73839,14.13483a9.33214,9.33214,0,0,0,9.23582-6.66585s1.52592-5.22025-3.53371-9.95863c0,0-6.2643-8.754,10.76175-9.23583,0,0,6.50523.16062,11.083,2.16841,0,0-6.50523-17.267-28.109-19.67632C126.92641,37.15922,117.71067,34.99081,115.29128,43.30305Z" style="fill:#f6f6f6"/><path d="M158.1537,188.31316a22.04751,22.04751,0,0,1-4.03565-2.59c-2.03937-2.73861,2.06465-16.97407,2.33475-17.90053a17.523,17.523,0,0,1-6.59353,1.83361,98.25991,98.25991,0,0,1,.67487,10.34472c-.36139,3.55377-3.13215,3.9453-3.13215,3.9453a42.59791,42.59791,0,0,0-9.21574,1.18961c-6.21913,2.04794-4.00552,5.28549-4.00552,5.28549,1.83712,2.78582,5.33066-1.295,5.33066-1.295h.40658l.10542.271c-4.0959,3.07193-1.74679,5.60173-1.74679,5.60173,2.95144,2.16843,4.57777-1.38536,4.57777-1.38536a10.27141,10.27141,0,0,1,3.0719-4.51752c5.30058-5.05965,8.13156,2.28887,8.13156,2.28887,1.74676,3.79472,4.45727,1.98772,4.45727,1.98772C161.28585,191.02367,158.1537,188.31316,158.1537,188.31316Z" style="fill:#f6f6f6"/><path d="M187.84821,90.6799s-58.76764,18.821-67.602-10.75487c0,0-.05184-.2009-.1311-.55174-.0199.04152-.03523.06993-.03523.06993-5.78244,3.16229-9.035-.33129-9.035-.33129-3.19238-2.86108-1.47573-9.1856-1.47573-9.1856.81315-5.30058,6.957-9.36635,6.957-9.36635a6.639,6.639,0,0,0,2.59005-5.99324c-.15058-2.43947-3.31284-6.6257-3.31284-6.6257a6.97377,6.97377,0,0,1-.60606-3.81663c-6.93866,4.61887-52.326,56.13007-11.85152,104.55493,0,0,9.21844,9.98666,29.19177,15.74821,0,0,21.89383,15.74819,33.801-7.298,0,0,26.11894-5.37743,29.96-37.25793C197.97683,120.6337,225.41805,81.35805,187.84821,90.6799ZM176.388,131.00736s-4.17617,6.90679-27.30592,4.49746c-1.7039-.1775,1.31462,5.91032-.96375,9.31613-3.738,5.58773-12.9386,4.36362-14.76843,4.12016-16.02-2.1314-24.27916-21.04138-25.06609-22.91305a50.441,50.441,0,0,1-3.37308-17.66856c.1571-1.44973,1.76687-4.01557,1.60624.16063a43.83759,43.83759,0,0,0,7.38865,20.72039c5.83313,8.46184,17.15792,18.072,25.69968,15.74106a6.32577,6.32577,0,0,0,4.0156-2.7306c1.525-2.837-.25318-7.43239-4.49746-11.72548,0,0-3.05185-3.21246,1.44561-1.44561,0,0,18.95351,7.54928,34.53394-.32124C175.103,128.75865,178.15483,128.598,176.388,131.00736Z" style="fill:#f6f6f6"/><path d="M193.57111,84.74381s-3.91519-11.20347-22.22624-18.37127c-3.299-1.14619-6.51108-.85924-8.21183.97377a4.63394,4.63394,0,0,0-.94366,1.556s-.4756,1.16047.70077,3.68451c.91683,1.96721,2.83714,4.76271,6.76818,8.48268,0,0-8.252-2.04794-8.7941,4.39706,0,0-.3614,6.50524,8.97481,5.662C169.839,91.12857,185.31912,90.34554,193.57111,84.74381Z" style="fill:#f6f6f6"/><path d="M150.20289,8.60847a6.71912,6.71912,0,0,1,3.092-7.79021,6.72987,6.72987,0,0,1,8.59334,1.8873A11.33074,11.33074,0,0,1,171.96732,7.966a11.7027,11.7027,0,0,1,.92356,9.83815c2.05867,5.00941-.31407,10.15283-4.01557,11.44439-2.58456.90184-5.76071-.0939-8.03115-2.40933l-6.30444,3.092a1.60866,1.60866,0,0,1-1.40547,0,5.4371,5.4371,0,0,1-.763-.763c-.27684-.28569-.45353-.4535-.522-.522-.35108-.35132-1.50956-1.7476-4.57776-5.662-.54608-.89768-1.418-1.16-1.76685-.92358-.33136.22455-.408,1.046.08031,1.84717l4.97932,6.46507a1.18043,1.18043,0,0,1-.56219,1.56607l-8.89451,4.07582a6.30857,6.30857,0,0,1-7.52921-8.85432Z" style="fill:#f6f6f6"/></svg>