<svg id="4a6dc429-b627-47de-b0c7-ea9d1e07d718" data-name="Capa 1" xmlns="http://www.w3.org/2000/svg" viewBox="0 0 120.79179 195.7002"><title>mono</title><path d="M28.54664,43.30305s-.512,2.92133.512,4.638c0,0,3.16227,4.18624,3.31285,6.6257a6.639,6.639,0,0,1-2.59,5.99325s-6.14383,4.06577-6.957,9.36633c0,0-1.71666,6.32453,1.47572,9.18563,0,0,3.25262,3.49355,9.035.33129a3.08866,3.08866,0,0,0,.1807-2.04795s-2.89122-10.4405,1.3653-12.368c0,0,1.20467-.08031,1.12436,1.36529,0,0-2.0881,13.73327,4.73838,14.13483a9.33214,9.33214,0,0,0,9.23582-6.66585s1.52592-5.22025-3.5337-9.95863c0,0-6.2643-8.754,10.76174-9.23583,0,0,6.50523.16062,11.083,2.16841,0,0-6.50523-17.267-28.109-19.67632C40.18178,37.15922,30.966,34.99081,28.54664,43.30305Z" style="fill:#ff7463"/><path d="M71.40906,188.31316a22.04751,22.04751,0,0,1-4.03565-2.59c-2.03937-2.73861,2.06465-16.97407,2.33475-17.90053a17.523,17.523,0,0,1-6.59353,1.83361,98.26082,98.26082,0,0,1,.67488,10.34472c-.3614,3.55377-3.13216,3.9453-3.13216,3.9453a42.59791,42.59791,0,0,0-9.21574,1.18961c-6.21913,2.04794-4.00552,5.28549-4.00552,5.28549,1.83712,2.78582,5.33067-1.295,5.33067-1.295h.40657l.10542.271c-4.0959,3.07193-1.74678,5.60173-1.74678,5.60173,2.95144,2.16843,4.57776-1.38536,4.57776-1.38536a10.27141,10.27141,0,0,1,3.0719-4.51752c5.30058-5.05965,8.13156,2.28887,8.13156,2.28887,1.74676,3.79472,4.45727,1.98772,4.45727,1.98772C74.54122,191.02367,71.40906,188.31316,71.40906,188.31316Z" style="fill:#ff7463"/><path d="M101.10357,90.6799s-58.76764,18.821-67.602-10.75487c0,0-.05184-.2009-.1311-.55174-.01989.04152-.03522.06993-.03522.06993-5.78245,3.16229-9.03506-.33129-9.03506-.33129-3.19237-2.86108-1.47572-9.1856-1.47572-9.1856.81314-5.30058,6.957-9.36635,6.957-9.36635a6.639,6.639,0,0,0,2.59005-5.99324c-.15058-2.43947-3.31284-6.6257-3.31284-6.6257a6.97386,6.97386,0,0,1-.60606-3.81663c-6.93865,4.61887-52.326,56.13007-11.85152,104.55493,0,0,9.21844,9.98666,29.19177,15.74821,0,0,21.89383,15.74819,33.801-7.298,0,0,26.11894-5.37743,29.96-37.25793C111.23219,120.6337,138.67341,81.35805,101.10357,90.6799ZM89.64335,131.00736s-4.17617,6.90679-27.30591,4.49746c-1.70391-.1775,1.31462,5.91032-.96375,9.31613-3.738,5.58773-12.93861,4.36362-14.76844,4.12016-16.02-2.1314-24.27916-21.04138-25.06609-22.91305a50.44129,50.44129,0,0,1-3.37308-17.66856c.1571-1.44973,1.76687-4.01557,1.60624.16063A43.83759,43.83759,0,0,0,27.161,129.24052c5.83313,8.46184,17.15792,18.072,25.69968,15.74106a6.32574,6.32574,0,0,0,4.0156-2.7306c1.525-2.837-.25318-7.43239-4.49746-11.72548,0,0-3.05185-3.21246,1.44561-1.44561,0,0,18.95352,7.54928,34.534-.32124C88.35835,128.75865,91.4102,128.598,89.64335,131.00736Z" style="fill:#f2f2f2"/><path d="M106.82647,84.74381s-3.91519-11.20347-22.22623-18.37127c-3.299-1.14619-6.51109-.85924-8.21184.97377a4.63394,4.63394,0,0,0-.94366,1.556s-.4756,1.16047.70078,3.68451c.91682,1.96721,2.83713,4.76271,6.76817,8.48268,0,0-8.252-2.04794-8.7941,4.39706,0,0-.36139,6.50524,8.97482,5.662C83.09441,91.12857,98.57448,90.34554,106.82647,84.74381Z" style="fill:#f2f2f2"/><path d="M63.45825,8.60847a6.71912,6.71912,0,0,1,3.092-7.79021,6.72987,6.72987,0,0,1,8.59334,1.8873A11.33077,11.33077,0,0,1,85.22269,7.966a11.70278,11.70278,0,0,1,.92356,9.83815c2.05867,5.00941-.31408,10.15283-4.01558,11.44439-2.58456.90184-5.76071-.0939-8.03114-2.40933l-6.30444,3.092a1.60868,1.60868,0,0,1-1.40548,0,5.4371,5.4371,0,0,1-.763-.763c-.27684-.28569-.45353-.4535-.522-.522-.35108-.35132-1.50956-1.7476-4.57776-5.662-.54608-.89768-1.418-1.16-1.76684-.92358-.33137.22455-.408,1.046.0803,1.84717l4.97932,6.46507a1.18043,1.18043,0,0,1-.56219,1.56607L54.363,36.01477a6.30857,6.30857,0,0,1-7.5292-8.85432Z" style="fill:#fff"/></svg>